<svg version="1.2" xmlns="http://www.w3.org/2000/svg" viewBox="0 0 400 400" width="40" height="40">
	<title>house-svg</title>
	<style>
		.s0 { fill: #98b1dc } 
	</style>
	<g id="Layer">
		<g id="layer1">
			<path id="rect2391" class="s0" d="m342.9 330.5c0 4.1-3.7 7.4-8.3 7.4h-88.5v-69.6c0-4.1-3.7-7.4-8.3-7.4h-72.7c-4.6 0-8.3 3.3-8.3 7.4v69.6h-88.4c-4.7 0-8.4-3.3-8.4-7.4v-158.7l141.5-111.1 141.4 111.1z"/>
			<path id="path2399" class="s0" d="m201.5 0.8l0.8-0.8 200.6 157.5-21.1 21.1-180.3-141.5-180.4 141.5-21.1-21.1 200.7-157.5z"/>
			<path id="rect2404" class="s0" d="m60 22.7h50.9l-0.5 26.7-50.4 40.4z"/>
		</g>
	</g>
</svg>