<svg xmlns="http://www.w3.org/2000/svg" width="40" height="40" viewBox="0 0 40 40">
    <g id="mail" transform="translate(28 7)">
        <g id="mail23" data-name="Ellipse 23" transform="translate(-28 -7)" fill="none" stroke="#98b1dc"
           stroke-width="2">
            <circle cx="20" cy="20" r="20" stroke="none"/>
            <circle cx="20" cy="20" r="19" fill="none"/>
        </g>
        <path id="mail246" data-name="Path 246"
              d="M20,4H4A2,2,0,0,0,2.01,6L2,18a2.006,2.006,0,0,0,2,2H20a2.006,2.006,0,0,0,2-2V6A2.006,2.006,0,0,0,20,4Zm0,4-8,5L4,8V6l8,5,8-5Z"
              transform="translate(-20 1)" fill="#98b1dc"/>
    </g>
</svg>
