<svg xmlns="http://www.w3.org/2000/svg" width="40" height="40" viewBox="0 0 40 40">
    <g id="Phone" transform="translate(0 -1)">
        <g id="phone23" data-name="Ellipse23" transform="translate(0 1)" fill="none" stroke="#98b1dc"
           stroke-width="2">
            <circle cx="20" cy="20" r="20" stroke="none"/>
            <circle cx="20" cy="20" r="19" fill="none"/>
        </g>
        <g id="phone" data-name="Group30" transform="translate(10.617 11.362)">
            <path id="Path35" data-name="Path35"
                  d="M179.156,88.03c-.492-.241-2.879-1.411-3.325-1.569s-.771-.242-1.1.242-1.263,1.569-1.542,1.884-.566.363-1.058.121a13.133,13.133,0,0,1-3.91-2.4,14.46,14.46,0,0,1-2.7-3.333c-.278-.483-.028-.743.214-.985.223-.222.483-.566.734-.845.065-.084.12-.158.176-.232a5.448,5.448,0,0,0,.307-.576.873.873,0,0,0-.037-.845c-.121-.242-1.1-2.619-1.505-3.585s-.808-.8-1.1-.8-.6-.046-.929-.046a1.8,1.8,0,0,0-1.3.6,5.406,5.406,0,0,0-1.7,4.03,6.153,6.153,0,0,0,.25,1.644,10.946,10.946,0,0,0,1.737,3.343c.241.316,3.361,5.349,8.3,7.289,4.949,1.923,4.949,1.282,5.841,1.2s2.879-1.16,3.278-2.293a3.987,3.987,0,0,0,.288-2.294C179.964,88.393,179.639,88.272,179.156,88.03Z"
                  transform="translate(-160.389 -75.067)" fill="#98b1dc" fill-rule="evenodd"/>
        </g>
    </g>
</svg>
